<svg xmlns="http://www.w3.org/2000/svg" viewBox="0 0 512 512">
  <defs>
    <linearGradient id="bg" x1="0" y1="0" x2="1" y2="1">
      <stop offset="0%" stop-color="#312e81"/>
      <stop offset="100%" stop-color="#1e1b4b"/>
    </linearGradient>
  </defs>
  <rect width="512" height="512" rx="96" fill="url(#bg)"/>
  <circle cx="220" cy="260" r="148" fill="#c7d2fe"/>
  <circle cx="296" cy="206" r="138" fill="url(#bg)"/>
  <path d="M390 130 l10 30 30 10-30 10-10 30-10-30-30-10 30-10z" fill="#fbbf24"/>
  <path d="M435 245 l6 18 18 6-18 6-6 18-6-18-18-6 18-6z" fill="#fbbf24" opacity="0.6"/>
  <path d="M350 80 l4 12 12 4-12 4-4 12-4-12-12-4 12-4z" fill="#fbbf24" opacity="0.4"/>
</svg>
